# xmcd CD database file
#
# Track frame offsets:
#	150
#	13362
#	23726
#	35610
#	45526
#	57925
#	69583
#	79218
#	90702
#	103315
#	115406
#	125720
#	138749
#	152825
#	163726
#	176010
#	185517
#	198349
#	207755
#	218545
#
# Disc length: 3064 seconds
#
# Revision: 3
# Processed by: cddbd v1.5.2PL0 Copyright (c) Steve Scherf et al.
# Submitted via: CDex 1.77
#
DISCID=280bf614
DTITLE=Various Artist - No Stones Unturned # 3
DYEAR=2018
DGENRE=Blues
TTITLE0=Slim Harpo - I'm A King Bee
TTITLE1=Crickets (Featuring Buddy Holly) - Not Fade Away
TTITLE2=Chuck Berry - You Can't Catch Me 
TTITLE3=Benny Spellman - Fortune Teller
TTITLE4=Bo Diddley - I'm A Man
TTITLE5=Muddy Waters - I Want To Be Loved
TTITLE6=Gene Allison - You Can Make It If You Try
TTITLE7=Marvin Gaye - Hitch Hike
TTITLE8=Howlin' Wolf - Just Like I Treat You 
TTITLE9=Chuck Berry - Little Queenie
TTITLE10=Little Walter - I Hate To See You Go
TTITLE11=Jay Mcshann - Confessin' The Blues
TTITLE12=Muddy Waters - Rock Me
TTITLE13=John Lee Hooker - (Money) I Need Some Money 
TTITLE14=Coasters - Poison Ivy 
TTITLE15=Bo Diddley - Crackin' Up
TTITLE16=Eddie Taylor - Ride 'em On Down
TTITLE17=Chuck Berry - Bye Bye Johnny
TTITLE18=Muddy Waters - Look What You've Done 
TTITLE19=Ray Charles - I'm Movin' On 
EXTD=YEAR: 2018
EXTT0=
EXTT1=
EXTT2=
EXTT3=
EXTT4=
EXTT5=
EXTT6=
EXTT7=
EXTT8=
EXTT9=
EXTT10=
EXTT11=
EXTT12=
EXTT13=
EXTT14=
EXTT15=
EXTT16=
EXTT17=
EXTT18=
EXTT19=
PLAYORDER=
